<?xml version="1.0" standalone="no"?>
<!DOCTYPE svg PUBLIC "-//W3C//DTD SVG 20010904//EN"
 "http://www.w3.org/TR/2001/REC-SVG-20010904/DTD/svg10.dtd">
<svg version="1.0" xmlns="http://www.w3.org/2000/svg"
 width="300.000000pt" height="132.000000pt" viewBox="0 0 300.000000 132.000000"
 preserveAspectRatio="xMidYMid meet">
<metadata>
Created by potrace 1.10, written by Peter Selinger 2001-2011
</metadata>
<g transform="translate(0.000000,132.000000) scale(0.100000,-0.100000)"
fill="#000000" stroke="none">
<path d="M2290 790 l0 -49 48 20 c48 20 72 42 72 66 0 9 -17 13 -60 13 l-60 0
0 -50z"/>
<path d="M724 775 c-26 -19 1 -20 36 0 23 13 23 14 4 15 -11 0 -29 -7 -40 -15z"/>
<path d="M2357 752 c-12 -11 -34 -17 -65 -18 -26 0 -82 -1 -124 -2 l-78 -2 0
-36 0 -37 70 7 c84 7 169 37 200 71 26 28 23 44 -3 17z"/>
<path d="M393 753 l-33 -4 0 -65 c0 -57 2 -64 20 -64 13 0 20 7 20 20 0 17 7
20 39 20 21 0 44 -6 50 -14 15 -17 71 -38 71 -27 0 5 -12 16 -26 26 l-26 17
23 12 c77 38 -22 95 -138 79z m125 -36 c24 -19 -7 -37 -64 -37 -53 0 -54 0
-54 30 l0 29 53 -6 c28 -3 58 -10 65 -16z"/>
<path d="M713 753 l-73 -4 0 -64 0 -65 90 0 c58 0 90 4 90 11 0 7 -25 10 -72
7 -69 -3 -73 -2 -76 20 -3 21 0 22 62 22 41 0 66 4 66 11 0 7 -22 10 -62 7
-57 -3 -63 -1 -63 17 0 18 6 20 68 18 53 -2 67 1 67 12 0 8 -6 14 -12 13 -7
-1 -46 -4 -85 -5z"/>
<path d="M913 745 c-62 -27 -36 -59 55 -71 32 -4 52 -12 52 -19 0 -19 -44 -26
-92 -16 -44 10 -70 5 -47 -10 22 -14 143 -11 164 5 31 22 11 43 -52 56 -84 16
-89 18 -74 33 7 7 35 11 72 10 66 -3 80 11 22 21 -52 8 -63 7 -100 -9z"/>
<path d="M1163 753 l-33 -4 0 -65 0 -64 90 0 c60 0 90 4 90 11 0 8 -22 10 -70
7 -68 -5 -70 -5 -70 18 0 23 4 24 60 24 38 0 60 4 60 11 0 8 -20 10 -60 7 -56
-4 -60 -3 -60 17 0 20 5 22 63 21 34 -1 63 4 65 9 2 10 -79 15 -135 8z"/>
<path d="M1667 754 c-4 -4 -7 -27 -7 -51 0 -64 23 -83 105 -83 85 0 107 19
103 88 -2 34 -7 47 -18 47 -11 0 -16 -15 -20 -55 l-5 -55 -60 0 -60 0 -5 54
c-5 51 -17 71 -33 55z"/>
<path d="M1402 684 c-42 -51 -49 -64 -33 -64 10 0 24 7 31 15 18 22 138 21
155 -1 6 -9 19 -15 28 -13 26 6 -78 129 -107 128 -13 0 -40 -24 -74 -65z m118
-6 c0 -4 -20 -8 -45 -8 l-46 0 23 30 22 30 23 -22 c13 -12 23 -25 23 -30z"/>
<path d="M2502 740 c-53 -8 -151 -50 -170 -73 -6 -7 -12 -19 -14 -27 -2 -8 -9
-21 -15 -28 -29 -30 -15 -42 47 -42 l60 0 0 45 c0 49 -6 53 -51 29 -38 -19
-46 -14 -18 12 14 12 37 19 72 19 29 1 85 2 125 3 l72 2 0 35 c0 39 -3 40
-108 25z"/>
<path d="M2050 604 l-25 -15 35 6 c39 6 66 25 35 25 -11 -1 -31 -8 -45 -16z"/>
<path d="M923 568 c-48 -23 -20 -56 56 -65 61 -7 87 -29 47 -39 -15 -3 -52 -3
-84 1 -45 5 -55 4 -45 -6 18 -18 117 -24 153 -9 43 18 40 46 -7 59 -21 6 -47
11 -59 11 -11 0 -29 6 -40 14 -18 14 -18 15 -1 22 10 3 43 4 73 1 51 -5 72 4
38 17 -25 10 -107 6 -131 -6z"/>
<path d="M1175 517 c-27 -34 -51 -65 -53 -69 -7 -17 34 -7 45 11 17 27 139 25
154 -1 9 -17 49 -26 49 -12 0 15 -114 134 -129 133 -9 0 -38 -28 -66 -62z
m115 -19 c0 -5 -20 -8 -45 -8 -25 0 -45 2 -45 5 0 3 10 19 22 36 l22 29 23
-27 c12 -16 22 -31 23 -35z"/>
<path d="M1430 510 c0 -65 2 -70 21 -70 20 0 21 4 16 50 -3 28 -4 50 -1 50 3
0 38 -22 77 -50 39 -27 77 -50 84 -50 9 0 13 19 13 70 0 65 -2 70 -21 70 -20
0 -21 -4 -15 -50 4 -27 4 -50 1 -50 -3 0 -36 23 -75 50 -95 68 -100 67 -100
-20z"/>
<path d="M1700 570 c0 -5 18 -10 40 -10 l40 0 0 -60 c0 -53 2 -60 20 -60 18 0
20 7 20 60 l0 60 40 0 c22 0 40 5 40 10 0 6 -40 10 -100 10 -60 0 -100 -4
-100 -10z"/>
<path d="M1960 510 l0 -70 90 0 c53 0 90 4 90 10 0 6 -30 10 -69 10 -60 0 -69
2 -74 20 -5 18 0 20 59 20 36 0 64 4 64 10 0 6 -27 10 -60 10 -53 0 -60 2 -60
20 0 18 7 20 70 20 40 0 70 4 70 10 0 6 -37 10 -90 10 l-90 0 0 -70z"/>
</g>
</svg>
